<svg width="132" height="56" viewBox="0 0 132 56" fill="none" xmlns="http://www.w3.org/2000/svg">
<rect width="131.667" height="56" transform="translate(0.333496)" fill="white"/>
<path d="M74.3335 29V27C74.3335 25.9391 73.9121 24.9217 73.1619 24.1716C72.4118 23.4214 71.3944 23 70.3335 23H62.3335C61.2726 23 60.2552 23.4214 59.5051 24.1716C58.7549 24.9217 58.3335 25.9391 58.3335 27V29" stroke="#979C9E" stroke-width="1.5" stroke-linecap="round" stroke-linejoin="round"/>
<path d="M66.3335 19C68.5426 19 70.3335 17.2091 70.3335 15C70.3335 12.7909 68.5426 11 66.3335 11C64.1244 11 62.3335 12.7909 62.3335 15C62.3335 17.2091 64.1244 19 66.3335 19Z" stroke="#979C9E" stroke-width="1.5" stroke-linecap="round" stroke-linejoin="round"/>
<path d="M50.3749 44.776V45.604H60.2029V44.776H50.3749ZM54.7669 42.448V45.124H55.7629V42.448H54.7669ZM51.5629 36.892V37.696H58.0069V39.376H51.5989V42.352H52.5829V40.18H58.9909V36.892H51.5629ZM51.5989 41.932V42.748H59.2429V41.932H51.5989ZM62.47 37.24V38.044H69.454V37.24H62.47ZM61.414 44.524V45.352H71.218V44.524H61.414ZM68.926 37.24V38.32C68.926 39.664 68.926 41.284 68.494 43.504L69.49 43.6C69.898 41.26 69.898 39.712 69.898 38.32V37.24H68.926ZM80.337 36.1V44.02H81.345V36.1H80.337ZM74.373 45.88V46.696H81.669V45.88H74.373ZM74.373 43.204V46.156H75.357V43.204H74.373ZM75.525 36.844C73.905 36.844 72.693 37.948 72.693 39.52C72.693 41.08 73.905 42.196 75.525 42.196C77.145 42.196 78.345 41.08 78.345 39.52C78.345 37.948 77.145 36.844 75.525 36.844ZM75.525 37.708C76.581 37.708 77.385 38.452 77.385 39.52C77.385 40.576 76.581 41.32 75.525 41.32C74.469 41.32 73.665 40.576 73.665 39.52C73.665 38.452 74.469 37.708 75.525 37.708Z" fill="#6C7072"/>
</svg>
