<svg width="169" height="105" viewBox="0 0 169 105" fill="none" xmlns="http://www.w3.org/2000/svg">
<path d="M41.5809 20.5873H44.2481L42.6599 14.3687C41.2566 8.87342 44.4769 3.23183 49.8418 1.79296L55.2682 0.337068C60.6334 -1.1018 66.1417 2.19951 67.5458 7.69476L65.2336 8.31468C64.1648 4.12393 59.9642 1.60725 55.8769 2.70423L50.4468 4.15906C46.3587 5.25603 43.9006 9.55799 44.9692 13.7487L46.7173 20.5865H69.4175C71.3923 20.5865 73 22.2329 73 24.2571V50.3294C73 52.3528 71.3923 54 69.4175 54H41.5817C39.6079 54 38 52.3528 38 50.3294V24.259C37.9992 22.2348 39.6069 20.5873 41.5809 20.5873ZM40.3885 50.3313C40.3885 51.0063 40.9237 51.5538 41.5809 51.5538H69.4175C70.0745 51.5538 70.6107 51.0063 70.6107 50.3313V24.259C70.6107 23.584 70.0745 23.0354 69.4175 23.0354H41.5817C40.9247 23.0354 40.3893 23.5837 40.3893 24.259V50.3313H40.3885Z" fill="#010002"/>
<path d="M50.2642 44V29.4545H56.0881C57.1581 29.4545 58.0507 29.6132 58.7656 29.9304C59.4806 30.2476 60.018 30.688 60.3778 31.2514C60.7377 31.8101 60.9176 32.4541 60.9176 33.1832C60.9176 33.7514 60.804 34.2509 60.5767 34.6818C60.3494 35.108 60.0369 35.4583 59.6392 35.733C59.2462 36.0028 58.7964 36.1946 58.2898 36.3082V36.4503C58.8438 36.474 59.3622 36.6302 59.8452 36.919C60.3329 37.2079 60.7282 37.6127 61.0312 38.1335C61.3343 38.6496 61.4858 39.2652 61.4858 39.9801C61.4858 40.7519 61.294 41.4408 60.9105 42.0469C60.5317 42.6482 59.9706 43.1241 59.2273 43.4744C58.4839 43.8248 57.5677 44 56.4787 44H50.2642ZM53.3395 41.4858H55.8466C56.7036 41.4858 57.3286 41.3224 57.7216 40.9957C58.1146 40.6643 58.3111 40.224 58.3111 39.6747C58.3111 39.2723 58.214 38.9171 58.0199 38.6094C57.8258 38.3016 57.5488 38.0601 57.1889 37.8849C56.8338 37.7098 56.41 37.6222 55.9176 37.6222H53.3395V41.4858ZM53.3395 35.5412H55.6193C56.0407 35.5412 56.4148 35.4678 56.7415 35.321C57.0729 35.1695 57.3333 34.9564 57.5227 34.6818C57.7169 34.4072 57.8139 34.0781 57.8139 33.6946C57.8139 33.169 57.6269 32.7453 57.2528 32.4233C56.8835 32.1013 56.358 31.9403 55.6761 31.9403H53.3395V35.5412Z" fill="black"/>
<path d="M0.710227 31.9901V29.4545H12.6562V31.9901H8.20312V44H5.16335V31.9901H0.710227ZM17.5923 37.6932V44H14.5668V29.4545H17.5071V35.0156H17.6349C17.8812 34.3717 18.2789 33.8674 18.8281 33.5028C19.3774 33.1335 20.0663 32.9489 20.8949 32.9489C21.6525 32.9489 22.313 33.1146 22.8764 33.446C23.4446 33.7727 23.8849 34.2438 24.1974 34.8594C24.5147 35.4702 24.6709 36.2017 24.6662 37.054V44H21.6406V37.5938C21.6454 36.9214 21.4749 36.3982 21.1293 36.0241C20.7884 35.6501 20.3101 35.4631 19.6946 35.4631C19.2827 35.4631 18.9181 35.5507 18.6009 35.7259C18.2884 35.901 18.0421 36.1567 17.8622 36.4929C17.687 36.8243 17.5971 37.2244 17.5923 37.6932ZM32.0188 44.2131C30.8967 44.2131 29.9308 43.9858 29.1211 43.5312C28.3162 43.072 27.6959 42.4233 27.2603 41.5852C26.8247 40.7424 26.6069 39.7457 26.6069 38.5952C26.6069 37.473 26.8247 36.4882 27.2603 35.6406C27.6959 34.7931 28.3091 34.1326 29.0998 33.6591C29.8952 33.1856 30.828 32.9489 31.8981 32.9489C32.6178 32.9489 33.2878 33.0649 33.908 33.2969C34.533 33.5241 35.0775 33.8674 35.5415 34.3267C36.0103 34.786 36.3749 35.3636 36.6353 36.0597C36.8957 36.7509 37.0259 37.5606 37.0259 38.4886V39.3196H27.8143V37.4446H34.1779C34.1779 37.009 34.0832 36.6231 33.8938 36.2869C33.7044 35.9508 33.4416 35.688 33.1055 35.4986C32.774 35.3045 32.3881 35.2074 31.9478 35.2074C31.4885 35.2074 31.0813 35.3139 30.7262 35.527C30.3758 35.7353 30.1012 36.017 29.9023 36.3722C29.7035 36.7225 29.6017 37.1132 29.5969 37.544V39.3267C29.5969 39.8665 29.6964 40.3329 29.8952 40.7259C30.0988 41.1188 30.3853 41.4219 30.7546 41.6349C31.1239 41.848 31.5619 41.9545 32.0685 41.9545C32.4047 41.9545 32.7125 41.9072 32.9918 41.8125C33.2712 41.7178 33.5103 41.5758 33.7092 41.3864C33.908 41.197 34.0595 40.965 34.1637 40.6903L36.962 40.875C36.82 41.5473 36.5288 42.1345 36.0884 42.6364C35.6528 43.1335 35.0894 43.5218 34.3981 43.8011C33.7115 44.0758 32.9184 44.2131 32.0188 44.2131Z" fill="black"/>
<path d="M81.0043 36.8267V39.2273H74.3707V36.8267H81.0043ZM83.5824 44V33.0909H86.5156V34.9943H86.6293C86.8281 34.3172 87.1619 33.8059 87.6307 33.4602C88.0994 33.1098 88.6392 32.9347 89.25 32.9347C89.4015 32.9347 89.5649 32.9441 89.7401 32.9631C89.9152 32.982 90.0691 33.008 90.2017 33.0412V35.7259C90.0597 35.6832 89.8632 35.6454 89.6122 35.6122C89.3613 35.5791 89.1316 35.5625 88.9233 35.5625C88.4782 35.5625 88.0805 35.6596 87.7301 35.8537C87.3845 36.0431 87.1098 36.3082 86.9062 36.6491C86.7074 36.9901 86.608 37.383 86.608 37.8281V44H83.5824ZM94.5643 44.206C93.8683 44.206 93.248 44.0852 92.7035 43.8438C92.159 43.5975 91.7281 43.2353 91.4109 42.7571C91.0984 42.2741 90.9421 41.6728 90.9421 40.9531C90.9421 40.3471 91.0534 39.8381 91.2759 39.4261C91.4985 39.0142 91.8015 38.6828 92.185 38.4318C92.5685 38.1809 93.0041 37.9915 93.4918 37.8636C93.9843 37.7358 94.5004 37.6458 95.0401 37.5938C95.6746 37.5275 96.186 37.4659 96.5742 37.4091C96.9625 37.3475 97.2442 37.2576 97.4194 37.1392C97.5946 37.0208 97.6822 36.8456 97.6822 36.6136V36.571C97.6822 36.1212 97.5401 35.7732 97.256 35.527C96.9767 35.2808 96.579 35.1577 96.0629 35.1577C95.5183 35.1577 95.0851 35.2784 94.7631 35.5199C94.4412 35.7566 94.2281 36.0549 94.1239 36.4148L91.3256 36.1875C91.4677 35.5246 91.747 34.9517 92.1637 34.4688C92.5804 33.9811 93.1178 33.607 93.7759 33.3466C94.4388 33.0814 95.2058 32.9489 96.0771 32.9489C96.6831 32.9489 97.2631 33.0199 97.8171 33.1619C98.3758 33.304 98.8706 33.5241 99.3015 33.8224C99.7371 34.1207 100.08 34.5043 100.331 34.973C100.582 35.437 100.708 35.9934 100.708 36.642V44H97.8384V42.4872H97.7532C97.578 42.8281 97.3436 43.1288 97.0501 43.3892C96.7565 43.6449 96.4038 43.8461 95.9918 43.9929C95.5799 44.1349 95.104 44.206 94.5643 44.206ZM95.4308 42.1179C95.8758 42.1179 96.2688 42.0303 96.6097 41.8551C96.9506 41.6752 97.2182 41.4337 97.4123 41.1307C97.6064 40.8277 97.7035 40.4844 97.7035 40.1009V38.9432C97.6088 39.0047 97.4786 39.0616 97.3129 39.1136C97.1519 39.161 96.9696 39.206 96.766 39.2486C96.5624 39.2865 96.3588 39.322 96.1552 39.3551C95.9516 39.3835 95.7669 39.4096 95.6012 39.4332C95.2461 39.4853 94.936 39.5682 94.6708 39.6818C94.4057 39.7955 94.1997 39.9493 94.0529 40.1435C93.9061 40.3329 93.8327 40.5696 93.8327 40.8537C93.8327 41.2656 93.9819 41.5805 94.2802 41.7983C94.5832 42.0114 94.9667 42.1179 95.4308 42.1179ZM107.984 44.2131C106.867 44.2131 105.905 43.9763 105.1 43.5028C104.3 43.0246 103.685 42.3617 103.254 41.5142C102.828 40.6667 102.615 39.6913 102.615 38.5881C102.615 37.4706 102.83 36.4905 103.261 35.6477C103.697 34.8002 104.315 34.1397 105.115 33.6662C105.915 33.188 106.867 32.9489 107.97 32.9489C108.922 32.9489 109.755 33.1217 110.47 33.4673C111.185 33.813 111.751 34.2983 112.167 34.9233C112.584 35.5483 112.814 36.2822 112.856 37.125H110.001C109.921 36.5805 109.708 36.1425 109.362 35.8111C109.021 35.4749 108.574 35.3068 108.02 35.3068C107.551 35.3068 107.141 35.4347 106.791 35.6903C106.445 35.9413 106.175 36.3082 105.981 36.7912C105.787 37.2741 105.69 37.8589 105.69 38.5455C105.69 39.2415 105.785 39.8333 105.974 40.321C106.168 40.8087 106.44 41.1804 106.791 41.4361C107.141 41.6918 107.551 41.8196 108.02 41.8196C108.365 41.8196 108.675 41.7486 108.95 41.6065C109.229 41.4645 109.459 41.2585 109.639 40.9886C109.824 40.714 109.944 40.3849 110.001 40.0014H112.856C112.809 40.8348 112.582 41.5687 112.174 42.2031C111.772 42.8329 111.216 43.3253 110.505 43.6804C109.795 44.0355 108.955 44.2131 107.984 44.2131ZM117.535 40.8608L117.542 37.2315H117.982L121.477 33.0909H124.95L120.255 38.5739H119.538L117.535 40.8608ZM114.793 44V29.4545H117.819V44H114.793ZM121.612 44L118.401 39.2486L120.418 37.1108L125.156 44H121.612Z" fill="black"/>
</svg>
