<svg width="127" height="56" viewBox="0 0 127 56" fill="none" xmlns="http://www.w3.org/2000/svg">
<rect width="131.667" height="56" transform="translate(-5)" fill="white"/>
<path d="M52 16.9999L61 9.99988L70 16.9999V27.9999C70 28.5303 69.7893 29.039 69.4142 29.4141C69.0391 29.7892 68.5304 29.9999 68 29.9999H54C53.4696 29.9999 52.9609 29.7892 52.5858 29.4141C52.2107 29.039 52 28.5303 52 27.9999V16.9999Z" stroke="#6C7072" stroke-width="1.5" stroke-linecap="round" stroke-linejoin="round"/>
<path d="M57.2685 43.696V46.792H64.6725V43.696H57.2685ZM63.7005 44.464V46.036H58.2525V44.464H63.7005ZM56.5845 36.976V37.756H65.3085V36.976H56.5845ZM60.9765 38.188C58.7325 38.188 57.4725 38.716 57.4725 39.724C57.4725 40.732 58.7325 41.26 60.9765 41.26C63.2085 41.26 64.4805 40.732 64.4805 39.724C64.4805 38.716 63.2085 38.188 60.9765 38.188ZM60.9765 38.884C62.5365 38.884 63.4125 39.184 63.4125 39.724C63.4125 40.264 62.5365 40.564 60.9765 40.564C59.4045 40.564 58.5285 40.264 58.5285 39.724C58.5285 39.184 59.4045 38.884 60.9765 38.884ZM60.4845 35.932V37.48H61.4685V35.932H60.4845ZM56.0685 42.088V42.868H65.8725V42.088H56.0685ZM60.4845 41.02V42.52H61.4685V41.02H60.4845Z" fill="#6C7072"/>
</svg>
