<svg width="133" height="56" viewBox="0 0 133 56" fill="none" xmlns="http://www.w3.org/2000/svg">
<rect width="131.667" height="56" transform="translate(0.666504)" fill="white"/>
<path d="M62.6665 18L66.6665 22L70.6665 18M58.6665 11H74.6665C75.1969 11 75.7056 11.2107 76.0807 11.5858C76.4558 11.9609 76.6665 12.4696 76.6665 13V19C76.6665 21.6522 75.6129 24.1957 73.7376 26.0711C71.8622 27.9464 69.3187 29 66.6665 29C65.3533 29 64.0529 28.7413 62.8397 28.2388C61.6264 27.7362 60.524 26.9997 59.5954 26.0711C57.7201 24.1957 56.6665 21.6522 56.6665 19V13C56.6665 12.4696 56.8772 11.9609 57.2523 11.5858C57.6274 11.2107 58.1361 11 58.6665 11Z" stroke="#979C9E" stroke-width="1.5" stroke-linecap="round" stroke-linejoin="round"/>
<path d="M53.0604 36.076V46.948H54.0564V36.076H53.0604ZM48.3324 36.916C46.7364 36.916 45.5844 38.392 45.5844 40.696C45.5844 43.012 46.7364 44.488 48.3324 44.488C49.9404 44.488 51.0924 43.012 51.0924 40.696C51.0924 38.392 49.9404 36.916 48.3324 36.916ZM48.3324 37.816C49.4004 37.816 50.1324 38.944 50.1324 40.696C50.1324 42.46 49.4004 43.612 48.3324 43.612C47.2764 43.612 46.5324 42.46 46.5324 40.696C46.5324 38.944 47.2764 37.816 48.3324 37.816ZM58.6394 39.76V41.812H59.6234V39.76H58.6394ZM62.6234 39.76V41.812H63.6074V39.76H62.6234ZM56.2154 41.452V42.256H66.0194V41.452H56.2154ZM61.1114 43.072C58.7834 43.072 57.3914 43.756 57.3914 44.992C57.3914 46.228 58.7834 46.924 61.1114 46.924C63.4394 46.924 64.8314 46.228 64.8314 44.992C64.8314 43.756 63.4394 43.072 61.1114 43.072ZM61.1114 43.84C62.8154 43.84 63.8234 44.26 63.8234 44.992C63.8234 45.736 62.8154 46.144 61.1114 46.144C59.4194 46.144 58.3994 45.736 58.3994 44.992C58.3994 44.26 59.4194 43.84 61.1114 43.84ZM61.1234 36.28C58.7594 36.28 57.3074 37.036 57.3074 38.308C57.3074 39.568 58.7594 40.312 61.1234 40.312C63.4754 40.312 64.9394 39.568 64.9394 38.308C64.9394 37.036 63.4754 36.28 61.1234 36.28ZM61.1234 37.06C62.8514 37.06 63.9194 37.516 63.9194 38.308C63.9194 39.088 62.8514 39.544 61.1234 39.544C59.3954 39.544 58.3274 39.088 58.3274 38.308C58.3274 37.516 59.3954 37.06 61.1234 37.06ZM74.6825 36.076V44.068H75.6785V36.076H74.6825ZM75.3665 39.376V40.204H77.2865V39.376H75.3665ZM68.9225 45.88V46.696H76.1705V45.88H68.9225ZM68.9225 43.252V46.204H69.9185V43.252H68.9225ZM70.2905 36.844C68.6705 36.844 67.4585 37.96 67.4585 39.52C67.4585 41.092 68.6705 42.196 70.2905 42.196C71.9105 42.196 73.1225 41.092 73.1225 39.52C73.1225 37.96 71.9105 36.844 70.2905 36.844ZM70.2905 37.72C71.3465 37.72 72.1505 38.464 72.1505 39.52C72.1505 40.588 71.3465 41.32 70.2905 41.32C69.2345 41.32 68.4305 40.588 68.4305 39.52C68.4305 38.464 69.2345 37.72 70.2905 37.72ZM86.5376 36.088V46.936H87.4976V36.088H86.5376ZM84.7136 40.504V41.32H86.8016V40.504H84.7136ZM84.0776 36.328V46.384H85.0136V36.328H84.0776ZM78.8216 37.396V43.66H79.8176V37.396H78.8216ZM78.8216 43.264V44.128H79.5176C80.6816 44.128 81.9296 44.068 83.4056 43.78L83.2976 42.916C81.8816 43.192 80.6336 43.264 79.5176 43.264H78.8216Z" fill="#6C7072"/>
</svg>
