<svg width="132" height="56" viewBox="0 0 132 56" fill="none" xmlns="http://www.w3.org/2000/svg">
<rect width="131.667" height="56" transform="translate(0.333496)" fill="white"/>
<path d="M74.3335 29V27C74.3335 25.9391 73.9121 24.9217 73.1619 24.1716C72.4118 23.4214 71.3944 23 70.3335 23H62.3335C61.2726 23 60.2552 23.4214 59.5051 24.1716C58.7549 24.9217 58.3335 25.9391 58.3335 27V29" stroke="#979C9E" stroke-width="1.5" stroke-linecap="round" stroke-linejoin="round"/>
<path d="M66.3335 19C68.5426 19 70.3335 17.2091 70.3335 15C70.3335 12.7909 68.5426 11 66.3335 11C64.1244 11 62.3335 12.7909 62.3335 15C62.3335 17.2091 64.1244 19 66.3335 19Z" stroke="#979C9E" stroke-width="1.5" stroke-linecap="round" stroke-linejoin="round"/>
<path d="M58.6069 36.088V46.936H59.5669V36.088H58.6069ZM56.7829 40.504V41.32H58.8709V40.504H56.7829ZM56.1469 36.328V46.384H57.0829V36.328H56.1469ZM50.8909 37.396V43.66H51.8869V37.396H50.8909ZM50.8909 43.264V44.128H51.5869C52.7509 44.128 53.9989 44.068 55.4749 43.78L55.3669 42.916C53.9509 43.192 52.7029 43.264 51.5869 43.264H50.8909ZM67.198 38.896V39.724H69.646V38.896H67.198ZM69.334 36.088V42.556H70.33V36.088H69.334ZM66.766 42.88C64.522 42.88 63.142 43.636 63.142 44.908C63.142 46.192 64.522 46.924 66.766 46.924C68.998 46.924 70.378 46.192 70.378 44.908C70.378 43.636 68.998 42.88 66.766 42.88ZM66.766 43.66C68.398 43.66 69.394 44.116 69.394 44.908C69.394 45.688 68.398 46.144 66.766 46.144C65.134 46.144 64.138 45.688 64.138 44.908C64.138 44.116 65.134 43.66 66.766 43.66ZM64.174 37.18V38.056C64.174 39.616 63.058 41.068 61.45 41.656L61.966 42.448C63.766 41.776 64.99 40.06 64.99 38.056V37.18H64.174ZM64.366 37.18V38.056C64.366 39.88 65.53 41.512 67.294 42.148L67.798 41.356C66.226 40.804 65.17 39.46 65.17 38.056V37.18H64.366ZM61.75 36.88V37.696H67.546V36.88H61.75ZM72.453 44.728V45.556H82.281V44.728H72.453ZM76.845 42.136V44.968H77.841V42.136H76.845ZM73.605 36.856V42.4H81.105V36.856H80.121V38.788H74.589V36.856H73.605ZM74.589 39.592H80.121V41.584H74.589V39.592Z" fill="#6C7072"/>
</svg>
